<svg width="24" height="24" viewBox="0 0 24 24" fill="none" xmlns="http://www.w3.org/2000/svg">
<g clip-path="url(#clip0_1_2067)">
<path fill-rule="evenodd" clip-rule="evenodd" d="M4 1.6C3.36348 1.6 2.75303 1.85286 2.30294 2.30294C1.85286 2.75303 1.6 3.36348 1.6 4V8H0V4C0 2.93913 0.421427 1.92172 1.17157 1.17157C1.92172 0.421427 2.93913 0 4 0L8 0V1.6H4ZM20 1.6H16V0H20C21.0609 0 22.0783 0.421427 22.8284 1.17157C23.5786 1.92172 24 2.93913 24 4V8H22.4V4C22.4 3.36348 22.1471 2.75303 21.6971 2.30294C21.247 1.85286 20.6365 1.6 20 1.6ZM8 9.6H6.4V8H8V9.6ZM17.6 9.6H16V8H17.6V9.6ZM7.84 13.92C8.32436 14.5658 8.95244 15.09 9.67449 15.451C10.3965 15.812 11.1927 16 12 16C12.8073 16 13.6035 15.812 14.3255 15.451C15.0476 15.09 15.6756 14.5658 16.16 13.92L17.44 14.88C14.72 18.5072 9.28 18.5072 6.56 14.88L7.84 13.92ZM0 20V16H1.6V20C1.6 20.6365 1.85286 21.247 2.30294 21.6971C2.75303 22.1471 3.36348 22.4 4 22.4H8V24H4C2.93913 24 1.92172 23.5786 1.17157 22.8284C0.421427 22.0783 0 21.0609 0 20H0ZM24 16V20C24 21.0609 23.5786 22.0783 22.8284 22.8284C22.0783 23.5786 21.0609 24 20 24H16V22.4H20C20.6365 22.4 21.247 22.1471 21.6971 21.6971C22.1471 21.247 22.4 20.6365 22.4 20V16H24Z" fill="#FF9220"/>
</g>
<defs>
<clipPath id="clip0_1_2067">
<rect width="24" height="24" fill="white"/>
</clipPath>
</defs>
</svg>
